<svg preserveAspectRatio="none" width="100%" height="100%" overflow="visible" style="display: block;" viewBox="0 0 111 14.7279" fill="none" xmlns="http://www.w3.org/2000/svg">
<path id="Arrow 1" d="M0.1 7.36396V8.36396H0.131817L0.163571 8.36194L0.1 7.36396ZM4.875 7.39739L4.78805 6.40118L4.875 7.39739ZM6.375 7.32833L6.29757 8.32533L6.375 7.32833ZM8.25 7.34239L8.15271 6.34713L8.25 7.34239ZM10.125 7.39912L10.0102 8.39251L10.125 7.39912ZM11.625 7.35487L11.5474 6.35788L11.625 7.35487ZM13.125 7.35685L13.0973 8.35647L13.125 7.35685ZM14.25 7.29934L14.1598 6.30342L14.25 7.29934ZM14.625 7.26539L14.5348 6.26947L14.625 7.26539ZM17.25 7.30355L17.2785 8.30314L17.25 7.30355ZM17.625 7.29286L17.5965 6.29326L17.625 7.29286ZM18.375 7.34603L18.2071 8.33183L18.375 7.34603ZM19.875 7.47L19.6975 6.48588L19.875 7.47ZM20.625 7.33477L20.8025 8.31889L20.625 7.33477ZM22.875 7.29846L22.7445 8.28991L22.875 7.29846ZM24.375 7.39871L24.2486 6.40672L24.375 7.39871ZM25.875 7.29054L25.7817 8.28617L25.875 7.29054ZM29.625 7.43888L29.5373 8.43503L29.625 7.43888ZM32.625 7.42062L32.7189 8.4162L32.625 7.42062ZM33.375 7.34618L33.2714 6.35156L33.375 7.34618ZM33.75 7.30712L33.6464 6.3125L33.75 7.30712ZM34.125 7.26807L34.2286 8.26269L34.125 7.26807ZM35.625 7.22397L35.6205 6.22398L35.625 7.22397ZM36.375 7.25668L36.2837 8.2525L36.375 7.25668ZM37.125 7.32545L37.2163 6.32963L37.125 7.32545ZM39.375 7.38612L39.3419 8.38558L39.375 7.38612ZM40.875 7.42953L40.8915 6.42966L40.875 7.42953ZM41.625 7.44189L41.6085 8.44176L41.625 7.44189ZM42.375 7.46152L42.3392 8.46088L42.375 7.46152ZM45.375 7.31422L45.305 8.31177L45.375 7.31422ZM46.125 7.36685L46.195 6.36931L46.125 7.36685ZM46.875 7.39852L46.8893 6.39862L46.875 7.39852ZM47.625 7.40922L47.6393 6.40932L47.625 7.40922ZM49.875 7.41201L49.7438 6.42066L49.875 7.41201ZM50.625 7.31271L50.7562 8.30407L50.625 7.31271ZM55.125 7.38919L55.1058 8.389L55.125 7.38919ZM57.375 7.45898L57.5062 8.45033L57.375 7.45898ZM58.125 7.3597L57.9938 6.36835L58.125 7.3597ZM64.875 7.31499L64.7895 8.31132L64.875 7.31499ZM65.625 7.37935L65.7105 6.38302L65.625 7.37935ZM69.375 7.4737L69.4179 6.47462L69.375 7.4737ZM72.375 7.42029L72.2206 6.43229L72.375 7.42029ZM73.125 7.30306L73.2794 8.29106L73.125 7.30306ZM75.375 7.30022L75.206 8.28584L75.375 7.30022ZM78.375 7.48663L78.3282 8.48554L78.375 7.48663ZM81.375 7.31139L81.3637 8.31133L81.375 7.31139ZM82.125 7.31985L82.1363 6.31991L82.125 7.31985ZM85.875 7.28521L85.722 8.27343L85.875 7.28521ZM86.625 7.40135L86.778 6.41313L86.625 7.40135ZM91.875 7.3846L91.8063 8.38224L91.875 7.3846ZM92.625 7.43621L92.6937 6.43857L92.625 7.43621ZM93.375 7.45949L93.3683 6.45952L93.375 7.45949ZM94.875 7.46423L94.8422 8.46369L94.875 7.46423ZM99.375 7.27747L99.3265 6.27864L99.375 7.27747ZM100.125 7.24105L100.173 8.23988L100.125 7.24105ZM100.875 7.23191L100.851 8.23162L100.875 7.23191ZM101.25 7.24098L101.274 6.24127L101.25 7.24098ZM106.875 7.26426L106.854 6.26447L106.875 7.26426ZM109.75 7.39812L109.885 8.38891L109.929 8.38295L109.972 8.37316L109.75 7.39812ZM109.9 7.36396V6.36396H109.788L109.678 6.38892L109.9 7.36396ZM110.707 8.07107C111.098 7.68054 111.098 7.04738 110.707 6.65685L104.343 0.292893C103.953 -0.097631 103.319 -0.097631 102.929 0.292893C102.538 0.683418 102.538 1.31658 102.929 1.70711L108.586 7.36396L102.929 13.0208C102.538 13.4113 102.538 14.0445 102.929 14.435C103.319 14.8256 103.953 14.8256 104.343 14.435L110.707 8.07107ZM0 7.36396V8.36396H0.1V7.36396V6.36396H0V7.36396ZM0.1 7.36396L0.163571 8.36194L0.863571 8.31735L0.8 7.31937L0.73643 6.32139L0.0364295 6.36598L0.1 7.36396ZM0.8 7.31937L0.863571 8.31735C1.31164 8.28881 1.59778 8.2936 1.75625 8.31255L1.875 7.31963L1.99375 6.32671C1.65222 6.28586 1.22169 6.29048 0.73643 6.32139L0.8 7.31937ZM1.875 7.31963L1.75625 8.31255L2.13125 8.3574L2.25 7.36448L2.36875 6.37155L1.99375 6.32671L1.875 7.31963ZM2.25 7.36448L2.13125 8.3574L2.50625 8.40225L2.625 7.40932L2.74375 6.4164L2.36875 6.37155L2.25 7.36448ZM2.625 7.40932L2.50625 8.40225C2.80066 8.43746 3.09568 8.45277 3.39103 8.44803L3.375 7.44816L3.35897 6.44829C3.15432 6.45157 2.94934 6.44099 2.74375 6.4164L2.625 7.40932ZM3.375 7.44816L3.39103 8.44803L3.76603 8.44202L3.75 7.44215L3.73397 6.44228L3.35897 6.44829L3.375 7.44816ZM3.75 7.44215L3.76603 8.44202L4.14103 8.43601L4.125 7.43614L4.10897 6.43626L3.73397 6.44228L3.75 7.44215ZM4.125 7.43614L4.14103 8.43601C4.41479 8.43162 4.68845 8.41748 4.96195 8.39361L4.875 7.39739L4.78805 6.40118C4.56155 6.42095 4.33521 6.43264 4.10897 6.43626L4.125 7.43614ZM4.875 7.39739L4.96195 8.39361L5.33695 8.36088L5.25 7.36466L5.16305 6.36845L4.78805 6.40118L4.875 7.39739ZM5.25 7.36466L5.33695 8.36088L5.71195 8.32815L5.625 7.33193L5.53805 6.33572L5.16305 6.36845L5.25 7.36466ZM5.625 7.33193L5.71195 8.32815C5.90731 8.31109 6.10233 8.31016 6.29757 8.32533L6.375 7.32833L6.45243 6.33133C6.14767 6.30766 5.84269 6.30913 5.53805 6.33572L5.625 7.33193ZM6.375 7.32833L6.29757 8.32533L6.67257 8.35445L6.75 7.35745L6.82743 6.36045L6.45243 6.33133L6.375 7.32833ZM6.75 7.35745L6.67257 8.35445L7.04757 8.38357L7.125 7.38658L7.20243 6.38958L6.82743 6.36045L6.75 7.35745ZM7.125 7.38658L7.04757 8.38357C7.35585 8.40752 7.66431 8.40441 7.97228 8.3743L7.875 7.37905L7.77772 6.38379C7.58569 6.40256 7.39415 6.40447 7.20243 6.38958L7.125 7.38658ZM7.875 7.37905L7.97228 8.3743L8.34728 8.33765L8.25 7.34239L8.15271 6.34713L7.77772 6.38379L7.875 7.37905ZM8.25 7.34239L8.34728 8.33765L8.72228 8.30099L8.625 7.30573L8.52771 6.31048L8.15271 6.34713L8.25 7.34239ZM8.625 7.30573L8.72228 8.30099C8.90158 8.28347 9.08047 8.28504 9.26017 8.30581L9.375 7.31243L9.48983 6.31904C9.16953 6.28202 8.84842 6.27913 8.52771 6.31048L8.625 7.30573ZM9.375 7.31243L9.26017 8.30581L9.63517 8.34916L9.75 7.35578L9.86483 6.36239L9.48983 6.31904L9.375 7.31243ZM9.75 7.35578L9.63517 8.34916L10.0102 8.39251L10.125 7.39912L10.2398 6.40574L9.86483 6.36239L9.75 7.35578ZM10.125 7.39912L10.0102 8.39251C10.3238 8.42877 10.6383 8.43473 10.9526 8.41025L10.875 7.41327L10.7974 6.41629C10.6117 6.43075 10.4262 6.42728 10.2398 6.40574L10.125 7.39912ZM10.875 7.41327L10.9526 8.41025L11.3276 8.38105L11.25 7.38407L11.1724 6.38709L10.7974 6.41629L10.875 7.41327ZM11.25 7.38407L11.3276 8.38105L11.7026 8.35185L11.625 7.35487L11.5474 6.35788L11.1724 6.38709L11.25 7.38407ZM11.625 7.35487L11.7026 8.35185C11.9177 8.3351 12.1325 8.32972 12.3473 8.33568L12.375 7.33606L12.4027 6.33644C12.1175 6.32854 11.8323 6.33569 11.5474 6.35788L11.625 7.35487ZM12.375 7.33606L12.3473 8.33568L12.7223 8.34607L12.75 7.34646L12.7777 6.34684L12.4027 6.33644L12.375 7.33606ZM12.75 7.34646L12.7223 8.34607L13.0973 8.35647L13.125 7.35685L13.1527 6.35724L12.7777 6.34684L12.75 7.34646ZM13.125 7.35685L13.0973 8.35647C13.3868 8.36449 13.6761 8.35539 13.9652 8.32922L13.875 7.3333L13.7848 6.33737C13.5739 6.35647 13.3632 6.36307 13.1527 6.35724L13.125 7.35685ZM13.875 7.3333L13.9652 8.32922L14.3402 8.29527L14.25 7.29934L14.1598 6.30342L13.7848 6.33737L13.875 7.3333ZM14.25 7.29934L14.3402 8.29527L14.7152 8.26132L14.625 7.26539L14.5348 6.26947L14.1598 6.30342L14.25 7.29934ZM14.625 7.26539L14.7152 8.26132C14.9146 8.24326 15.1137 8.24047 15.3128 8.25288L15.375 7.25482L15.4372 6.25675C15.1363 6.238 14.8354 6.24225 14.5348 6.26947L14.625 7.26539ZM15.375 7.25482L15.3128 8.25288L15.6878 8.27625L15.75 7.27819L15.8122 6.28013L15.4372 6.25675L15.375 7.25482ZM15.75 7.27819L15.6878 8.27625L16.0628 8.29963L16.125 7.30156L16.1872 6.3035L15.8122 6.28013L15.75 7.27819ZM16.125 7.30156L16.0628 8.29963C16.3429 8.31709 16.6232 8.32183 16.9035 8.31384L16.875 7.31424L16.8465 6.31465C16.6268 6.32092 16.4071 6.3172 16.1872 6.3035L16.125 7.30156ZM16.875 7.31424L16.9035 8.31384L17.2785 8.30314L17.25 7.30355L17.2215 6.30396L16.8465 6.31465L16.875 7.31424ZM17.25 7.30355L17.2785 8.30314L17.6535 8.29245L17.625 7.29286L17.5965 6.29326L17.2215 6.30396L17.25 7.30355ZM17.625 7.29286L17.6535 8.29245C17.8368 8.28722 18.021 8.30015 18.2071 8.33183L18.375 7.34603L18.5429 6.36022C18.2289 6.30675 17.9132 6.28423 17.5965 6.29326L17.625 7.29286ZM18.375 7.34603L18.2071 8.33183L18.5821 8.3957L18.75 7.40989L18.9179 6.42409L18.5429 6.36022L18.375 7.34603ZM18.75 7.40989L18.5821 8.3957L18.9571 8.45956L19.125 7.47376L19.2929 6.48795L18.9179 6.42409L18.75 7.40989ZM19.125 7.47376L18.9571 8.45956C19.3216 8.52165 19.6885 8.51976 20.0525 8.45413L19.875 7.47L19.6975 6.48588C19.5615 6.51041 19.4283 6.51102 19.2929 6.48795L19.125 7.47376ZM19.875 7.47L20.0525 8.45413L20.4275 8.38651L20.25 7.40238L20.0725 6.41826L19.6975 6.48588L19.875 7.47ZM20.25 7.40238L20.4275 8.38651L20.8025 8.31889L20.625 7.33477L20.4475 6.35064L20.0725 6.41826L20.25 7.40238ZM20.625 7.33477L20.8025 8.31889C20.9987 8.2835 21.1934 8.26489 21.387 8.26257L21.375 7.26264L21.363 6.26271C21.0566 6.26639 20.7513 6.29587 20.4475 6.35064L20.625 7.33477ZM21.375 7.26264L21.387 8.26257L21.762 8.25806L21.75 7.25813L21.738 6.2582L21.363 6.26271L21.375 7.26264ZM21.75 7.25813L21.762 8.25806L22.137 8.25355L22.125 7.25362L22.113 6.25369L21.738 6.2582L21.75 7.25813ZM22.125 7.25362L22.137 8.25355C22.339 8.25112 22.5414 8.26318 22.7445 8.28991L22.875 7.29846L23.0055 6.307C22.7086 6.26795 22.411 6.25011 22.113 6.25369L22.125 7.25362ZM22.875 7.29846L22.7445 8.28991L23.1195 8.33925L23.25 7.3478L23.3805 6.35634L23.0055 6.307L22.875 7.29846ZM23.25 7.3478L23.1195 8.33925L23.4945 8.38859L23.625 7.39714L23.7555 6.40569L23.3805 6.35634L23.25 7.3478ZM23.625 7.39714L23.4945 8.38859C23.8297 8.4327 24.1661 8.43341 24.5014 8.39069L24.375 7.39871L24.2486 6.40672C24.0839 6.4277 23.9203 6.42737 23.7555 6.40569L23.625 7.39714ZM24.375 7.39871L24.5014 8.39069L24.8764 8.34291L24.75 7.35093L24.6236 6.35895L24.2486 6.40672L24.375 7.39871ZM24.75 7.35093L24.8764 8.34291L25.2514 8.29514L25.125 7.30316L24.9986 6.31117L24.6236 6.35895L24.75 7.35093ZM25.125 7.30316L25.2514 8.29514C25.4288 8.27254 25.6051 8.26962 25.7817 8.28617L25.875 7.29054L25.9683 6.2949C25.6449 6.26458 25.3212 6.27007 24.9986 6.31117L25.125 7.30316ZM25.875 7.29054L25.7817 8.28617L26.1567 8.32133L26.25 7.3257L26.3433 6.33006L25.9683 6.2949L25.875 7.29054ZM26.25 7.3257L26.1567 8.32133L26.5317 8.35649L26.625 7.36086L26.7183 6.36522L26.3433 6.33006L26.25 7.3257ZM26.625 7.36086L26.5317 8.35649C26.8249 8.38399 27.1186 8.39227 27.4124 8.38128L27.375 7.38198L27.3376 6.38268C27.1314 6.3904 26.9251 6.3846 26.7183 6.36522L26.625 7.36086ZM27.375 7.38198L27.4124 8.38128L27.7874 8.36725L27.75 7.36795L27.7126 6.36864L27.3376 6.38268L27.375 7.38198ZM27.75 7.36795L27.7874 8.36725L28.1624 8.35321L28.125 7.35391L28.0876 6.35461L27.7126 6.36864L27.75 7.36795ZM28.125 7.35391L28.1624 8.35321C28.3706 8.34542 28.5788 8.35068 28.7873 8.36903L28.875 7.37288L28.9627 6.37673C28.6712 6.35108 28.3794 6.34369 28.0876 6.35461L28.125 7.35391ZM28.875 7.37288L28.7873 8.36903L29.1623 8.40203L29.25 7.40588L29.3377 6.40973L28.9627 6.37673L28.875 7.37288ZM29.25 7.40588L29.1623 8.40203L29.5373 8.43503L29.625 7.43888L29.7127 6.44273L29.3377 6.40973L29.25 7.40588ZM29.625 7.43888L29.5373 8.43503C29.8043 8.45852 30.0713 8.47516 30.3384 8.48494L30.375 7.48561L30.4116 6.48627C30.1787 6.47775 29.9457 6.46324 29.7127 6.44273L29.625 7.43888ZM30.375 7.48561L30.3384 8.48494L30.7134 8.49866L30.75 7.49933L30.7866 6.5L30.4116 6.48627L30.375 7.48561ZM30.75 7.49933L30.7134 8.49866L31.0884 8.51238L31.125 7.51305L31.1616 6.51372L30.7866 6.5L30.75 7.49933ZM31.125 7.51305L31.0884 8.51238C31.3821 8.52313 31.6757 8.51463 31.9689 8.48697L31.875 7.49139L31.7811 6.49581C31.5743 6.51532 31.3679 6.52127 31.1616 6.51372L31.125 7.51305ZM31.875 7.49139L31.9689 8.48697L32.3439 8.45158L32.25 7.456L32.1561 6.46043L31.7811 6.49581L31.875 7.49139ZM32.25 7.456L32.3439 8.45158L32.7189 8.4162L32.625 7.42062L32.5311 6.42504L32.1561 6.46043L32.25 7.456ZM32.625 7.42062L32.7189 8.4162C32.9722 8.3923 33.2254 8.36717 33.4786 8.3408L33.375 7.34618L33.2714 6.35156C33.0246 6.37726 32.7778 6.40175 32.5311 6.42504L32.625 7.42062ZM33.375 7.34618L33.4786 8.3408L33.8536 8.30174L33.75 7.30712L33.6464 6.3125L33.2714 6.35156L33.375 7.34618ZM33.75 7.30712L33.8536 8.30174L34.2286 8.26269L34.125 7.26807L34.0214 6.27345L33.6464 6.3125L33.75 7.30712ZM34.125 7.26807L34.2286 8.26269C34.4458 8.24006 34.6628 8.2283 34.8795 8.22732L34.875 7.22733L34.8705 6.22734C34.5872 6.22861 34.3042 6.244 34.0214 6.27345L34.125 7.26807ZM34.875 7.22733L34.8795 8.22732L35.2545 8.22564L35.25 7.22565L35.2455 6.22566L34.8705 6.22734L34.875 7.22733ZM35.25 7.22565L35.2545 8.22564L35.6295 8.22396L35.625 7.22397L35.6205 6.22398L35.2455 6.22566L35.25 7.22565ZM35.625 7.22397L35.6295 8.22396C35.8474 8.22299 36.0654 8.23249 36.2837 8.2525L36.375 7.25668L36.4663 6.26086C36.1846 6.23502 35.9026 6.22272 35.6205 6.22398L35.625 7.22397ZM36.375 7.25668L36.2837 8.2525L36.6587 8.28689L36.75 7.29106L36.8413 6.29524L36.4663 6.26086L36.375 7.25668ZM36.75 7.29106L36.6587 8.28689L37.0337 8.32127L37.125 7.32545L37.2163 6.32963L36.8413 6.29524L36.75 7.29106ZM37.125 7.32545L37.0337 8.32127C37.3109 8.34669 37.5882 8.36069 37.8657 8.36326L37.875 7.3633L37.8843 6.36335C37.6618 6.36129 37.4391 6.35006 37.2163 6.32963L37.125 7.32545ZM37.875 7.3633L37.8657 8.36326L38.2407 8.36673L38.25 7.36677L38.2593 6.36682L37.8843 6.36335L37.875 7.3633ZM38.25 7.36677L38.2407 8.36673L38.6157 8.3702L38.625 7.37024L38.6343 6.37029L38.2593 6.36682L38.25 7.36677ZM38.625 7.37024L38.6157 8.3702C38.8578 8.37244 39.0999 8.37757 39.3419 8.38558L39.375 7.38612L39.4081 6.38667C39.1501 6.37814 38.8922 6.37267 38.6343 6.37029L38.625 7.37024ZM39.375 7.38612L39.3419 8.38558L39.7169 8.39798L39.75 7.39853L39.7831 6.39908L39.4081 6.38667L39.375 7.38612ZM39.75 7.39853L39.7169 8.39798L40.0919 8.41039L40.125 7.41094L40.1581 6.41148L39.7831 6.39908L39.75 7.39853ZM40.125 7.41094L40.0919 8.41039C40.3475 8.41884 40.603 8.42518 40.8585 8.42939L40.875 7.42953L40.8915 6.42966C40.647 6.42563 40.4025 6.41957 40.1581 6.41148L40.125 7.41094ZM40.875 7.42953L40.8585 8.42939L41.2335 8.43557L41.25 7.43571L41.2665 6.43585L40.8915 6.42966L40.875 7.42953ZM41.25 7.43571L41.2335 8.43557L41.6085 8.44176L41.625 7.44189L41.6415 6.44203L41.2665 6.43585L41.25 7.43571ZM41.625 7.44189L41.6085 8.44176C41.8521 8.44577 42.0956 8.45215 42.3392 8.46088L42.375 7.46152L42.4108 6.46217C42.1544 6.45297 41.8979 6.44626 41.6415 6.44203L41.625 7.44189ZM42.375 7.46152L42.3392 8.46088L42.7142 8.47433L42.75 7.47497L42.7858 6.47561L42.4108 6.46217L42.375 7.46152ZM42.75 7.47497L42.7142 8.47433L43.0892 8.48778L43.125 7.48842L43.1608 6.48906L42.7858 6.47561L42.75 7.47497ZM43.125 7.48842L43.0892 8.48778C43.3989 8.49888 43.7081 8.4823 44.0162 8.43836L43.875 7.44838L43.7338 6.4584C43.5419 6.48578 43.3511 6.49588 43.1608 6.48906L43.125 7.48842ZM43.875 7.44838L44.0162 8.43836L44.3912 8.38487L44.25 7.39489L44.1088 6.40491L43.7338 6.4584L43.875 7.44838ZM44.25 7.39489L44.3912 8.38487L44.7662 8.33138L44.625 7.3414L44.4838 6.35142L44.1088 6.40491L44.25 7.39489ZM44.625 7.3414L44.7662 8.33138C44.9468 8.30562 45.126 8.29921 45.305 8.31177L45.375 7.31422L45.445 6.31668C45.124 6.29415 44.8032 6.30586 44.4838 6.35142L44.625 7.3414ZM45.375 7.31422L45.305 8.31177L45.68 8.33809L45.75 7.34054L45.82 6.34299L45.445 6.31668L45.375 7.31422ZM45.75 7.34054L45.68 8.33809L46.055 8.3644L46.125 7.36685L46.195 6.36931L45.82 6.34299L45.75 7.34054ZM46.125 7.36685L46.055 8.3644C46.3235 8.38324 46.5921 8.39458 46.8607 8.39842L46.875 7.39852L46.8893 6.39862C46.6579 6.39532 46.4265 6.38555 46.195 6.36931L46.125 7.36685ZM46.875 7.39852L46.8607 8.39842L47.2357 8.40377L47.25 7.40387L47.2643 6.40397L46.8893 6.39862L46.875 7.39852ZM47.25 7.40387L47.2357 8.40377L47.6107 8.40912L47.625 7.40922L47.6393 6.40932L47.2643 6.40397L47.25 7.40387ZM47.625 7.40922L47.6107 8.40912C47.855 8.4126 48.0993 8.41818 48.3436 8.42585L48.375 7.42634L48.4064 6.42683C48.1507 6.41881 47.895 6.41297 47.6393 6.40932L47.625 7.40922ZM48.375 7.42634L48.3436 8.42585L48.7186 8.43762L48.75 7.43811L48.7814 6.4386L48.4064 6.42683L48.375 7.42634ZM48.75 7.43811L48.7186 8.43762L49.0936 8.44939L49.125 7.44988L49.1564 6.45037L48.7814 6.4386L48.75 7.43811ZM49.125 7.44988L49.0936 8.44939C49.3984 8.45895 49.7028 8.44353 50.0062 8.40336L49.875 7.41201L49.7438 6.42066C49.5472 6.44668 49.3516 6.4565 49.1564 6.45037L49.125 7.44988ZM49.875 7.41201L50.0062 8.40336L50.3812 8.35371L50.25 7.36236L50.1188 6.37101L49.7438 6.42066L49.875 7.41201ZM50.25 7.36236L50.3812 8.35371L50.7562 8.30407L50.625 7.31271L50.4938 6.32136L50.1188 6.37101L50.25 7.36236ZM50.625 7.31271L50.7562 8.30407C50.9423 8.27943 51.1273 8.27307 51.3121 8.28471L51.375 7.28669L51.4379 6.28867C51.1227 6.26881 50.8077 6.27981 50.4938 6.32136L50.625 7.31271ZM51.375 7.28669L51.3121 8.28471L51.6871 8.30833L51.75 7.31031L51.8129 6.31228L51.4379 6.28867L51.375 7.28669ZM51.75 7.31031L51.6871 8.30833L52.0621 8.33195L52.125 7.33393L52.1879 6.3359L51.8129 6.31228L51.75 7.31031ZM52.125 7.33393L52.0621 8.33195C52.3308 8.34887 52.5995 8.35824 52.8683 8.36004L52.875 7.36007L52.8817 6.36009C52.6505 6.35853 52.4192 6.35047 52.1879 6.3359L52.125 7.33393ZM52.875 7.36007L52.8683 8.36004L53.2433 8.36257L53.25 7.36259L53.2567 6.36261L52.8817 6.36009L52.875 7.36007ZM53.25 7.36259L53.2433 8.36257L53.6183 8.36509L53.625 7.36511L53.6317 6.36513L53.2567 6.36261L53.25 7.36259ZM53.625 7.36511L53.6183 8.36509C53.8641 8.36674 54.11 8.36992 54.3558 8.37463L54.375 7.37482L54.3942 6.375C54.14 6.37013 53.8859 6.36684 53.6317 6.36513L53.625 7.36511ZM54.375 7.37482L54.3558 8.37463L54.7308 8.38182L54.75 7.382L54.7692 6.38219L54.3942 6.375L54.375 7.37482ZM54.75 7.382L54.7308 8.38182L55.1058 8.389L55.125 7.38919L55.1442 6.38937L54.7692 6.38219L54.75 7.382ZM55.125 7.38919L55.1058 8.389C55.3373 8.39344 55.5688 8.40432 55.8004 8.42165L55.875 7.42444L55.9496 6.42722C55.6812 6.40714 55.4127 6.39452 55.1442 6.38937L55.125 7.38919ZM55.875 7.42444L55.8004 8.42165L56.1754 8.44971L56.25 7.4525L56.3246 6.45529L55.9496 6.42722L55.875 7.42444ZM56.25 7.4525L56.1754 8.44971L56.5504 8.47777L56.625 7.48056L56.6996 6.48335L56.3246 6.45529L56.25 7.4525ZM56.625 7.48056L56.5504 8.47777C56.8694 8.50165 57.1884 8.49241 57.5062 8.45033L57.375 7.45898L57.2438 6.46763C57.0616 6.49175 56.8806 6.49689 56.6996 6.48335L56.625 7.48056ZM57.375 7.45898L57.5062 8.45033L57.8812 8.40069L57.75 7.40934L57.6188 6.41799L57.2438 6.46763L57.375 7.45898ZM57.75 7.40934L57.8812 8.40069L58.2562 8.35105L58.125 7.3597L57.9938 6.36835L57.6188 6.41799L57.75 7.40934ZM58.125 7.3597L58.2562 8.35105C58.4636 8.32359 58.6703 8.30979 58.8766 8.30946L58.875 7.30946L58.8734 6.30946C58.5797 6.30993 58.2864 6.32961 57.9938 6.36835L58.125 7.3597ZM58.875 7.30946L58.8766 8.30946L59.2516 8.30887L59.25 7.30887L59.2484 6.30887L58.8734 6.30946L58.875 7.30946ZM59.25 7.30887L59.2516 8.30887L59.6266 8.30828L59.625 7.30828L59.6234 6.30828L59.2484 6.30887L59.25 7.30887ZM59.625 7.30828L59.6266 8.30828C59.8438 8.30793 60.0612 8.31824 60.2789 8.33925L60.375 7.34388L60.4711 6.3485C60.1888 6.32126 59.9062 6.30783 59.6234 6.30828L59.625 7.30828ZM60.375 7.34388L60.2789 8.33925L60.6539 8.37544L60.75 7.38006L60.8461 6.38469L60.4711 6.3485L60.375 7.34388ZM60.75 7.38006L60.6539 8.37544L61.0289 8.41163L61.125 7.41625L61.2211 6.42088L60.8461 6.38469L60.75 7.38006ZM61.125 7.41625L61.0289 8.41163C61.3261 8.44031 61.6238 8.44776 61.9215 8.43391L61.875 7.43499L61.8285 6.43607C61.6262 6.44549 61.4239 6.44045 61.2211 6.42088L61.125 7.41625ZM61.875 7.43499L61.9215 8.43391L62.2965 8.41646L62.25 7.41754L62.2035 6.41862L61.8285 6.43607L61.875 7.43499ZM62.25 7.41754L62.2965 8.41646L62.6715 8.39901L62.625 7.40009L62.5785 6.40117L62.2035 6.41862L62.25 7.41754ZM62.625 7.40009L62.6715 8.39901C62.9281 8.38707 63.1848 8.37256 63.4414 8.35548L63.375 7.35768L63.3086 6.35989C63.0652 6.37609 62.8219 6.38985 62.5785 6.40117L62.625 7.40009ZM63.375 7.35768L63.4414 8.35548L63.8164 8.33052L63.75 7.33272L63.6836 6.33493L63.3086 6.35989L63.375 7.35768ZM63.75 7.33272L63.8164 8.33052L64.1914 8.30555L64.125 7.30776L64.0586 6.30997L63.6836 6.33493L63.75 7.33272ZM64.125 7.30776L64.1914 8.30555C64.3907 8.29229 64.5899 8.2942 64.7895 8.31132L64.875 7.31499L64.9605 6.31865C64.66 6.29286 64.3593 6.28996 64.0586 6.30997L64.125 7.30776ZM64.875 7.31499L64.7895 8.31132L65.1645 8.34351L65.25 7.34717L65.3355 6.35083L64.9605 6.31865L64.875 7.31499ZM65.25 7.34717L65.1645 8.34351L65.5395 8.37569L65.625 7.37935L65.7105 6.38302L65.3355 6.35083L65.25 7.34717ZM65.625 7.37935L65.5395 8.37569C65.8281 8.40046 66.1169 8.40841 66.4058 8.39949L66.375 7.39997L66.3442 6.40044C66.1331 6.40695 65.9219 6.40116 65.7105 6.38302L65.625 7.37935ZM66.375 7.39997L66.4058 8.39949L66.7808 8.38792L66.75 7.38839L66.7192 6.38887L66.3442 6.40044L66.375 7.39997ZM66.75 7.38839L66.7808 8.38792L67.1558 8.37635L67.125 7.37682L67.0942 6.3773L66.7192 6.38887L66.75 7.38839ZM67.125 7.37682L67.1558 8.37635C67.375 8.36958 67.5942 8.37294 67.8135 8.38645L67.875 7.38834L67.9365 6.39023C67.6558 6.37295 67.375 6.36863 67.0942 6.3773L67.125 7.37682ZM67.875 7.38834L67.8135 8.38645L68.1885 8.40954L68.25 7.41143L68.3115 6.41332L67.9365 6.39023L67.875 7.38834ZM68.25 7.41143L68.1885 8.40954L68.5635 8.43263L68.625 7.43452L68.6865 6.43641L68.3115 6.41332L68.25 7.41143ZM68.625 7.43452L68.5635 8.43263C68.8197 8.4484 69.0759 8.46179 69.3321 8.47278L69.375 7.4737L69.4179 6.47462C69.1741 6.46416 68.9303 6.45142 68.6865 6.43641L68.625 7.43452ZM69.375 7.4737L69.3321 8.47278L69.7071 8.48888L69.75 7.4898L69.7929 6.49072L69.4179 6.47462L69.375 7.4737ZM69.75 7.4898L69.7071 8.48888L70.0821 8.50498L70.125 7.5059L70.1679 6.50682L69.7929 6.49072L69.75 7.4898ZM70.125 7.5059L70.0821 8.50498C70.3559 8.51674 70.6298 8.51868 70.9037 8.51082L70.875 7.51123L70.8463 6.51164C70.6202 6.51814 70.394 6.51653 70.1679 6.50682L70.125 7.5059ZM70.875 7.51123L70.9037 8.51082L71.2787 8.50004L71.25 7.50045L71.2213 6.50087L70.8463 6.51164L70.875 7.51123ZM71.25 7.50045L71.2787 8.50004L71.6537 8.48927L71.625 7.48968L71.5963 6.49009L71.2213 6.50087L71.25 7.50045ZM71.625 7.48968L71.6537 8.48927C71.9463 8.48086 72.2383 8.4538 72.5294 8.4083L72.375 7.42029L72.2206 6.43229C72.0117 6.46494 71.8037 6.48414 71.5963 6.49009L71.625 7.48968ZM72.375 7.42029L72.5294 8.4083L72.9044 8.34968L72.75 7.36168L72.5956 6.37367L72.2206 6.43229L72.375 7.42029ZM72.75 7.36168L72.9044 8.34968L73.2794 8.29106L73.125 7.30306L72.9706 6.31506L72.5956 6.37367L72.75 7.36168ZM73.125 7.30306L73.2794 8.29106C73.4808 8.25958 73.6811 8.24343 73.8807 8.2423L73.875 7.24231L73.8693 6.24233C73.5689 6.24404 73.2692 6.26838 72.9706 6.31506L73.125 7.30306ZM73.875 7.24231L73.8807 8.2423L74.2557 8.24017L74.25 7.24019L74.2443 6.2402L73.8693 6.24233L73.875 7.24231ZM74.25 7.24019L74.2557 8.24017L74.6307 8.23804L74.625 7.23806L74.6193 6.23807L74.2443 6.2402L74.25 7.24019ZM74.625 7.23806L74.6307 8.23804C74.8213 8.23696 75.0129 8.25273 75.206 8.28584L75.375 7.30022L75.544 6.31461C75.2371 6.262 74.9287 6.23632 74.6193 6.23807L74.625 7.23806ZM75.375 7.30022L75.206 8.28584L75.581 8.35014L75.75 7.36452L75.919 6.3789L75.544 6.31461L75.375 7.30022ZM75.75 7.36452L75.581 8.35014L75.956 8.41443L76.125 7.42882L76.294 6.4432L75.919 6.3789L75.75 7.36452ZM76.125 7.42882L75.956 8.41443C76.2662 8.46762 76.5782 8.49199 76.891 8.48697L76.875 7.4871L76.859 6.48722C76.6718 6.49023 76.4838 6.47574 76.294 6.4432L76.125 7.42882ZM76.875 7.4871L76.891 8.48697L77.266 8.48095L77.25 7.48108L77.234 6.48121L76.859 6.48722L76.875 7.4871ZM77.25 7.48108L77.266 8.48095L77.641 8.47493L77.625 7.47506L77.609 6.47519L77.234 6.48121L77.25 7.48108ZM77.625 7.47506L77.641 8.47493C77.87 8.47126 78.0991 8.47479 78.3282 8.48554L78.375 7.48663L78.4218 6.48773C78.1509 6.47503 77.8799 6.47084 77.609 6.47519L77.625 7.47506ZM78.375 7.48663L78.3282 8.48554L78.7032 8.50312L78.75 7.50422L78.7968 6.50532L78.4218 6.48773L78.375 7.48663ZM78.75 7.50422L78.7032 8.50312L79.0782 8.52071L79.125 7.52181L79.1719 6.52291L78.7968 6.50532L78.75 7.50422ZM79.125 7.52181L79.0782 8.52071C79.3957 8.5356 79.7126 8.51839 80.028 8.46956L79.875 7.48134L79.722 6.49311C79.5374 6.5217 79.3543 6.53146 79.1719 6.52291L79.125 7.52181ZM79.875 7.48134L80.028 8.46956L80.403 8.41151L80.25 7.42328L80.097 6.43505L79.722 6.49311L79.875 7.48134ZM80.25 7.42328L80.403 8.41151L80.778 8.35345L80.625 7.36522L80.472 6.37699L80.097 6.43505L80.25 7.42328ZM80.625 7.36522L80.778 8.35345C80.9743 8.32306 81.1694 8.30914 81.3637 8.31133L81.375 7.31139L81.3863 6.31145C81.0806 6.30801 80.7757 6.32998 80.472 6.37699L80.625 7.36522ZM81.375 7.31139L81.3637 8.31133L81.7387 8.31555L81.75 7.31562L81.7613 6.31568L81.3863 6.31145L81.375 7.31139ZM81.75 7.31562L81.7387 8.31555L82.1137 8.31978L82.125 7.31985L82.1363 6.31991L81.7613 6.31568L81.75 7.31562ZM82.125 7.31985L82.1137 8.31978C82.3564 8.32252 82.599 8.32793 82.8417 8.33603L82.875 7.33658L82.9083 6.33714C82.651 6.32855 82.3936 6.32281 82.1363 6.31991L82.125 7.31985ZM82.875 7.33658L82.8417 8.33603L83.2167 8.34853L83.25 7.34909L83.2833 6.34965L82.9083 6.33714L82.875 7.33658ZM83.25 7.34909L83.2167 8.34853L83.5917 8.36104L83.625 7.3616L83.6583 6.36215L83.2833 6.34965L83.25 7.34909ZM83.625 7.3616L83.5917 8.36104C83.8855 8.37084 84.1792 8.36133 84.4725 8.3326L84.375 7.33736L84.2775 6.34213C84.0708 6.36238 83.8645 6.36903 83.6583 6.36215L83.625 7.3616ZM84.375 7.33736L84.4725 8.3326L84.8475 8.29586L84.75 7.30062L84.6525 6.30539L84.2775 6.34213L84.375 7.33736ZM84.75 7.30062L84.8475 8.29586L85.2225 8.25912L85.125 7.26388L85.0275 6.26865L84.6525 6.30539L84.75 7.30062ZM85.125 7.26388L85.2225 8.25912C85.3884 8.24286 85.5543 8.24746 85.722 8.27343L85.875 7.28521L86.028 6.29699C85.6957 6.24553 85.3616 6.23592 85.0275 6.26865L85.125 7.26388ZM85.875 7.28521L85.722 8.27343L86.097 8.3315L86.25 7.34328L86.403 6.35506L86.028 6.29699L85.875 7.28521ZM86.25 7.34328L86.097 8.3315L86.472 8.38958L86.625 7.40135L86.778 6.41313L86.403 6.35506L86.25 7.34328ZM86.625 7.40135L86.472 8.38958C86.8016 8.44062 87.1331 8.45149 87.4647 8.42164L87.375 7.42567L87.2853 6.42969C87.1169 6.44486 86.9484 6.43951 86.778 6.41313L86.625 7.40135ZM87.375 7.42567L87.4647 8.42164L87.8397 8.38788L87.75 7.39191L87.6603 6.39593L87.2853 6.42969L87.375 7.42567ZM87.75 7.39191L87.8397 8.38788L88.2147 8.35412L88.125 7.35815L88.0353 6.36217L87.6603 6.39593L87.75 7.39191ZM88.125 7.35815L88.2147 8.35412C88.4645 8.33163 88.7143 8.30921 88.9641 8.28686L88.875 7.29084L88.7859 6.29482C88.5357 6.3172 88.2855 6.33965 88.0353 6.36217L88.125 7.35815ZM88.875 7.29084L88.9641 8.28686L89.3391 8.25331L89.25 7.25729L89.1609 6.26127L88.7859 6.29482L88.875 7.29084ZM89.25 7.25729L89.3391 8.25331L89.7141 8.21976L89.625 7.22374L89.5359 6.22772L89.1609 6.26127L89.25 7.25729ZM89.625 7.22374L89.7141 8.21976C89.8971 8.20339 90.0798 8.20546 90.2633 8.22608L90.375 7.23234L90.4867 6.2386C90.1702 6.20302 89.8529 6.19936 89.5359 6.22772L89.625 7.22374ZM90.375 7.23234L90.2633 8.22608L90.6383 8.26823L90.75 7.27449L90.8617 6.28075L90.4867 6.2386L90.375 7.23234ZM90.75 7.27449L90.6383 8.26823L91.0133 8.31038L91.125 7.31664L91.2367 6.3229L90.8617 6.28075L90.75 7.27449ZM91.125 7.31664L91.0133 8.31038C91.2776 8.34008 91.5419 8.36404 91.8063 8.38224L91.875 7.3846L91.9437 6.38696C91.7081 6.37074 91.4724 6.34939 91.2367 6.3229L91.125 7.31664ZM91.875 7.3846L91.8063 8.38224L92.1813 8.40804L92.25 7.4104L92.3187 6.41276L91.9437 6.38696L91.875 7.3846ZM92.25 7.4104L92.1813 8.40804L92.5563 8.43385L92.625 7.43621L92.6937 6.43857L92.3187 6.41276L92.25 7.4104ZM92.625 7.43621L92.5563 8.43385C92.8314 8.45278 93.1065 8.46133 93.3817 8.45947L93.375 7.45949L93.3683 6.45952C93.1435 6.46103 92.9186 6.45406 92.6937 6.43857L92.625 7.43621ZM93.375 7.45949L93.3817 8.45947L93.7567 8.45694L93.75 7.45697L93.7433 6.45699L93.3683 6.45952L93.375 7.45949ZM93.75 7.45697L93.7567 8.45694L94.1317 8.45442L94.125 7.45444L94.1183 6.45446L93.7433 6.45699L93.75 7.45697ZM94.125 7.45444L94.1317 8.45442C94.3685 8.45282 94.6053 8.45591 94.8422 8.46369L94.875 7.46423L94.9078 6.46477C94.6447 6.45613 94.3815 6.45269 94.1183 6.45446L94.125 7.45444ZM94.875 7.46423L94.8422 8.46369L95.2172 8.47601L95.25 7.47655L95.2828 6.47709L94.9078 6.46477L94.875 7.46423ZM95.25 7.47655L95.2172 8.47601L95.5922 8.48833L95.625 7.48887L95.6578 6.48941L95.2828 6.47709L95.25 7.47655ZM95.625 7.48887L95.5922 8.48833C95.8526 8.49689 96.1131 8.50136 96.3735 8.50175L96.375 7.50175L96.3765 6.50175C96.1369 6.5014 95.8974 6.49728 95.6578 6.48941L95.625 7.48887ZM96.375 7.50175L96.3735 8.50175L96.7485 8.50231L96.75 7.50231L96.7515 6.50231L96.3765 6.50175L96.375 7.50175ZM96.75 7.50231L96.7485 8.50231L97.1235 8.50287L97.125 7.50287L97.1265 6.50287L96.7515 6.50231L96.75 7.50231ZM97.125 7.50287L97.1235 8.50287C97.4203 8.50331 97.7167 8.48296 98.0122 8.44203L97.875 7.45149L97.7378 6.46094C97.5333 6.48926 97.3297 6.50317 97.1265 6.50287L97.125 7.50287ZM97.875 7.45149L98.0122 8.44203L98.3872 8.39009L98.25 7.39955L98.1128 6.409L97.7378 6.46094L97.875 7.45149ZM98.25 7.39955L98.3872 8.39009L98.7622 8.33816L98.625 7.34761L98.4878 6.35707L98.1128 6.409L98.25 7.39955ZM98.625 7.34761L98.7622 8.33816C98.983 8.30757 99.2034 8.28698 99.4235 8.27629L99.375 7.27747L99.3265 6.27864C99.0466 6.29223 98.767 6.3184 98.4878 6.35707L98.625 7.34761ZM99.375 7.27747L99.4235 8.27629L99.7985 8.25808L99.75 7.25926L99.7015 6.26044L99.3265 6.27864L99.375 7.27747ZM99.75 7.25926L99.7985 8.25808L100.173 8.23988L100.125 7.24105L100.077 6.24223L99.7015 6.26044L99.75 7.25926ZM100.125 7.24105L100.173 8.23988C100.399 8.22891 100.625 8.22616 100.851 8.23162L100.875 7.23191L100.899 6.2322C100.625 6.22557 100.351 6.22892 100.077 6.24223L100.125 7.24105ZM100.875 7.23191L100.851 8.23162L101.226 8.24069L101.25 7.24098L101.274 6.24127L100.899 6.2322L100.875 7.23191ZM101.25 7.24098L101.226 8.24069L101.601 8.24975L101.625 7.25004L101.649 6.25034L101.274 6.24127L101.25 7.24098ZM101.625 7.25004L101.601 8.24975C101.797 8.25449 101.994 8.27505 102.193 8.3119L102.375 7.32868L102.557 6.34545C102.256 6.28955 101.953 6.25768 101.649 6.25034L101.625 7.25004ZM102.375 7.32868L102.193 8.3119L102.568 8.38147L102.75 7.39824L102.932 6.41502L102.557 6.34545L102.375 7.32868ZM102.75 7.39824L102.568 8.38147L102.943 8.45104L103.125 7.46781L103.307 6.48459L102.932 6.41502L102.75 7.39824ZM103.125 7.46781L102.943 8.45104C103.295 8.51647 103.651 8.52607 104.007 8.47892L103.875 7.48761L103.743 6.4963C103.599 6.51551 103.455 6.51191 103.307 6.48459L103.125 7.46781ZM103.875 7.48761L104.007 8.47892L104.382 8.42915L104.25 7.43785L104.118 6.44654L103.743 6.4963L103.875 7.48761ZM104.25 7.43785L104.382 8.42915L104.757 8.37939L104.625 7.38808L104.493 6.39677L104.118 6.44654L104.25 7.43785ZM104.625 7.38808L104.757 8.37939C104.978 8.35003 105.199 8.33051 105.419 8.32076L105.375 7.32174L105.331 6.32271C105.051 6.33507 104.772 6.35977 104.493 6.39677L104.625 7.38808ZM105.375 7.32174L105.419 8.32076L105.794 8.30419L105.75 7.30516L105.706 6.30614L105.331 6.32271L105.375 7.32174ZM105.75 7.30516L105.794 8.30419L106.169 8.28762L106.125 7.28859L106.081 6.28957L105.706 6.30614L105.75 7.30516ZM106.125 7.28859L106.169 8.28762C106.411 8.27691 106.654 8.26906 106.896 8.26405L106.875 7.26426L106.854 6.26447C106.596 6.26981 106.339 6.27817 106.081 6.28957L106.125 7.28859ZM106.875 7.26426L106.896 8.26405L107.271 8.25629L107.25 7.2565L107.229 6.25672L106.854 6.26447L106.875 7.26426ZM107.25 7.2565L107.271 8.25629L107.646 8.24853L107.625 7.24875L107.604 6.24896L107.229 6.25672L107.25 7.2565ZM107.625 7.24875L107.646 8.24853C107.846 8.24439 108.047 8.25507 108.248 8.28078L108.375 7.28881L108.502 6.29685C108.203 6.25879 107.904 6.24276 107.604 6.24896L107.625 7.24875ZM108.375 7.28881L108.248 8.28078L108.623 8.3286L108.75 7.33664L108.877 6.34467L108.502 6.29685L108.375 7.28881ZM108.75 7.33664L108.623 8.3286L108.998 8.37642L109.125 7.38446L109.252 6.39249L108.877 6.34467L108.75 7.33664ZM109.125 7.38446L108.998 8.37642C109.226 8.4054 109.524 8.43825 109.76 8.40599L109.625 7.4152L109.49 6.42441C109.527 6.41923 109.549 6.41967 109.542 6.41969C109.539 6.41971 109.525 6.41957 109.499 6.41794C109.445 6.41464 109.365 6.40691 109.252 6.39249L109.125 7.38446ZM109.625 7.4152L109.76 8.40599L109.885 8.38891L109.75 7.39812L109.615 6.40733L109.49 6.42441L109.625 7.4152ZM109.75 7.39812L109.972 8.37316L110.122 8.339L109.9 7.36396L109.678 6.38892L109.528 6.42308L109.75 7.39812ZM109.9 7.36396V8.36396H110V7.36396V6.36396H109.9V7.36396Z" fill="var(--stroke-0, #8FB9C7)"/>
</svg>
