<svg preserveAspectRatio="none" width="100%" height="100%" overflow="visible" style="display: block;" viewBox="0 0 267.966 160.242" fill="none" xmlns="http://www.w3.org/2000/svg">
<path id="Vector 262" d="M246.714 93.6878C242.15 93.1867 236.67 91.7226 231.784 90.0838C230.166 89.5378 228.568 88.9614 227.108 88.3985C225.311 87.7059 226.522 86.6123 225.287 86.0744C222.863 85.0225 220.388 85.1526 217.999 84.0089C217.224 83.6271 218.687 81.7954 217.863 81.4416C213.307 79.5095 208.671 79.0593 203.95 77.5917C183.471 71.2346 163.01 66.0189 142.255 61.0809C139.408 60.4076 136.564 59.7451 133.715 59.0925C125.916 57.3016 116.709 53.7653 108.492 53.4408C107.533 53.4034 107.834 55.308 107.633 55.4326C104.479 57.3335 105.944 53.7851 104.139 53.0353C102.131 52.2079 100.005 51.5094 97.7917 50.8976C92.0118 49.3103 86.0388 48.2869 80.5513 47.6419C77.3138 47.257 79.7174 51.5301 76.9474 48.8112C76.7566 48.6259 77.9897 46.8985 77.169 46.4991C75.309 45.6037 71.513 45.0375 70.0368 44.4895C67.1962 43.4297 66.7156 43.3181 63.9731 42.5179C60.2251 41.398 56.0943 39.0822 51.9675 38.0842C51.0795 37.8739 51.5453 40.1721 50.0518 39.9974C49.8458 39.9726 49.6013 39.9232 49.3324 39.8544C47.7826 39.4703 45.2959 38.3893 44.4882 37.6802C43.5517 36.8553 44.5269 35.5252 44.4507 35.1165C43.8144 31.6599 38.7169 34.4624 38.2445 34.4397C32.1683 33.8099 27.283 32.0673 21.7666 30.4842C22.5642 30.5713 24.5122 30.6569 26.6169 29.5218C28.7257 28.3923 29.7331 26.6458 30.0176 25.892C30.3309 25.0943 30.3862 24.274 30.3435 23.8902C30.3038 23.4887 30.236 23.4557 30.2871 23.6245C30.7724 25.9067 35.8123 31.1358 39.6121 38.5862C39.851 39.0872 40.0757 39.5669 40.3002 40.0567C43.3988 46.8916 45.5864 52.8576 49.5446 59.7092C49.9548 60.4271 51.5618 58.4449 52.0711 59.3286C52.7747 60.552 53.4668 61.7884 54.141 63.0326C53.9479 62.9643 57.0488 66.2507 59.9846 68.6288C63.0241 71.2021 66.4088 73.9429 69.7525 76.8579C70.5316 77.536 68.3134 78.5913 69.0358 79.3789C71.282 81.8101 74.1203 85.2746 77.4423 87.2775C80.1911 88.9555 83.5898 88.9219 86.4079 85.2575C89.4578 86.7505 93.5661 88.0012 96.7392 90.1908C98.8094 91.5936 96.4182 93.628 99.3124 92.9201C99.9606 92.7541 99.2989 90.7251 100.235 90.6194C104.155 90.1715 108.533 90.7536 112.535 89.4847C113.361 89.2215 113.015 87.4686 113.228 87.1358C114.951 84.4416 118.747 88.4043 119.642 88.6568C120.107 88.7972 120.626 88.9181 121.103 89.0309C126.548 90.455 130.644 89.5771 135.83 89.6291C137.133 89.6468 135.598 87.264 136.857 87.1973C143.399 86.8884 150.196 87.3861 156.456 88.9232C157.851 89.272 156.398 91.1907 157.05 91.4607C157.473 91.6334 157.856 91.6993 158.211 91.6894C160.309 91.6435 161.462 89.0738 163.855 90.0638C164.444 90.3054 163.891 91.9851 163.979 92.1875C165.316 95.3615 167.321 91.3632 167.782 91.332C173.491 90.8378 176.227 95.7773 181.433 95.9254C182.054 95.9378 181.009 93.5642 182.728 93.7302C187.119 94.1435 191.498 94.6835 195.667 95.1118C202.841 95.8271 209.952 96.7799 216.727 97.6924C218.435 97.914 217.273 99.5957 217.379 99.7962C219.274 102.915 220.261 98.5979 220.784 98.4072C225.046 97.021 229.326 99.9888 231.894 94.4879C233.125 94.4188 234.512 94.3203 236.076 94.3009C237.108 94.3587 238.138 94.2355 239.032 93.974C239.473 93.8466 239.885 93.6794 240.165 93.5374C240.302 93.4695 240.407 93.4047 240.413 93.4077C240.415 93.4111 240.392 93.4314 240.31 93.5113C240.226 93.5993 240.093 93.7135 239.783 94.1259C239.343 94.7233 238.654 95.8884 238.523 97.6066C238.384 99.2907 238.972 100.79 239.378 101.46C239.82 102.202 240.091 102.425 240.226 102.564C240.368 102.696 240.38 102.692 240.338 102.663C240.115 102.485 239.159 101.955 238.175 101.509C236.148 100.578 233.69 99.6433 231.257 98.7103C226.335 96.8339 221.225 94.8583 216.279 92.4075C213.241 90.8451 209.799 89.2562 206.363 87.462C206.141 87.3527 207.067 85.4245 206.621 85.215C201.205 82.701 201.53 86.147 196.942 89.2131C195.797 89.9864 193.881 84.6744 193.685 84.2758C193.004 82.8092 194.614 79.9597 194.348 79.648C192.539 77.6459 191.125 83.9221 188.788 86.0235C188.244 86.5233 187.655 86.7914 186.997 86.6635C186.892 86.6254 187.709 84.8525 187.456 84.6107C186.663 83.8526 185.626 84.423 184.859 83.6178C183.114 81.7659 183.196 76.6863 179.559 79.0533C179.103 79.3676 178.784 85.2197 175.75 84.4904C174.537 84.1796 169.073 83.5828 167.581 83.0621C166.089 82.5248 167.333 80.7614 167.234 80.6688C163.297 77.7749 164.976 76.9081 163.138 73.047C162.164 71.054 161.665 72.4694 161.297 74.4155C160.951 76.2166 160.705 78.4732 160.253 78.9125C159.322 79.8191 156.369 77.5812 155.635 76.8345C154.895 76.0823 155.922 74.9343 155.25 74.4965C150.796 71.6607 153.078 78.7593 151.579 80.096C148.116 83.2887 145.537 76.7803 142.277 76.2383C141.416 76.0948 142.167 77.5496 141.414 77.7159C138.456 78.3732 136.476 76.4659 133.33 78.7184C132.776 79.0864 130.852 83.3063 128.714 80.8304C128.393 80.4752 128.756 78.7423 127.454 78.647C125.501 78.4863 122.122 79.0809 120.26 80.2584C118.862 81.1169 121.44 83.1103 119.211 82.931C118.287 82.8546 119.222 81.1804 117.985 80.8625C117.888 80.8277 117.774 80.8042 117.641 80.795C116.057 80.6051 112.536 82.3637 111.32 83.2561C110.08 84.1021 111.879 85.3639 111.846 85.5437C111.665 86.5602 110.083 88.9257 109.903 89.0855C105.446 92.7244 100.818 96.564 96.3428 100.648C94.7863 102.148 94.273 102.248 94.4361 105.144C94.3665 107.017 96.5324 110.038 99.3056 112.058C100.055 112.617 101.012 110.607 101.141 110.676C104.055 111.984 98.4885 114.734 99.2101 117.745C101.604 114.111 102.19 115.607 104.424 116.569C105.502 117.022 105.922 115.278 106.105 115.195C108.866 113.983 108.057 117.339 107.986 118.087C107.669 120.799 110.24 118.909 110.088 120.722C109.979 122.543 107.158 123.763 109.295 124.91C110.61 123.86 111.05 119.489 112.883 119.734C114.068 119.883 115.33 120.238 116.589 120.685C122.139 122.806 130.601 126.641 135.104 127.723C136.537 128.07 137.719 128.317 138.746 128.52C141.36 129.027 142.812 129.13 144.97 129.665C150.362 130.814 148.421 127.742 151.412 126.186C154.312 124.49 153.807 131.967 154.489 133.492C155.223 134.994 155.553 133.29 156.327 134.043C157.128 134.79 155.885 136.109 157.503 136.152C159.19 136.214 162.634 132.407 162.613 130.653C162.67 126.955 159.943 123.954 163.825 124.08C164.055 124.086 163.993 126.154 164.846 126.079C168.886 125.677 172.966 124.488 177.124 123.487C179.92 122.817 182.718 122.194 185.538 121.794C186.499 121.661 186.392 123.984 186.961 123.929C192.851 123.392 189.721 120.604 191.465 115.751C192.488 121.097 195.178 123.669 199.315 122.367C201.813 121.587 200.664 119.483 201.788 117.386C202.123 116.754 204.361 117.748 204.374 116.585C204.358 112.801 201.482 109.437 206.304 109.65C206.513 109.667 206.493 111.745 207.179 111.662C208.469 111.506 209.337 111.088 210.037 110.522C210.386 110.24 210.694 109.92 210.956 109.588C210.994 109.545 211.02 109.505 211.026 109.471C211.019 109.458 211.074 109.421 210.889 109.467C210.826 109.487 210.778 109.493 210.506 109.604C210.42 109.644 210.401 109.637 210.019 109.842C209.831 109.955 209.592 110.061 209.042 110.536C208.773 110.786 208.365 111.138 207.882 111.985C207.412 112.784 206.798 114.638 207.547 116.594C208.299 118.523 209.675 119.312 210.371 119.644C211.141 119.992 211.571 120.048 211.905 120.105C212.539 120.19 212.782 120.162 212.985 120.157C213.361 120.136 213.475 120.111 213.584 120.097C213.935 120.039 213.921 120.037 213.975 120.031C214.011 120.026 214.012 120.03 214.015 120.033C214.048 120.09 213.931 120.187 213.886 120.267C213.719 120.447 213.631 120.61 213.446 120.798C212.619 121.84 211.635 122.938 209.757 123.67C206.289 125.023 199.244 124.644 195.017 125.433C193.464 119.573 189.981 121.984 189.474 126.447C188.44 126.659 187.387 126.933 186.32 127.194C184.556 127.627 182.763 128.025 181.011 128.057C180.045 128.075 180.263 126.225 180.105 126.067C177.709 123.557 177.385 127.772 176.808 128.053C171.7 130.385 166.943 129.303 162.316 131.26C161.382 131.657 160.42 132.189 159.497 132.895C159.302 133.044 159.774 137.244 157.559 134.546C157.409 134.359 159.04 132.084 156.168 132.5C153.3 132.916 147.487 131.773 143.919 134.476C143.056 135.128 141.305 138.965 138.84 136.732C138.51 136.428 138.557 135.187 138.052 134.602C136.426 132.743 136.599 137.049 134.472 133.785C132.345 130.521 128.875 128.451 125.372 131.685C125.263 131.781 124.967 135.278 123.701 135.472C121.677 135.78 118.712 135.641 116.615 136.065C115.619 136.267 116.651 138.203 116.485 138.274C116.022 138.447 115.548 138.607 115.106 138.746C109.193 140.58 104.279 139.793 97.4217 140.242C96.0712 140.326 92.7407 143.808 89.7855 142.022C86.5408 140.07 87.7329 129.426 81.6188 132.964C80.2028 133.785 79.1821 138.574 77.5486 141.442C77.3818 141.597 77.2911 141.723 77.0661 141.928C76.9594 142.007 76.8306 142.086 76.6417 142.299C76.5499 142.407 76.4379 142.561 76.3635 142.788C76.2679 143.017 76.2809 143.505 76.4307 143.751C76.7218 144.256 77.034 144.289 77.0787 144.303C77.1527 144.312 77.2152 144.312 77.2731 144.308C77.3855 144.299 77.4962 144.281 77.5794 144.255C77.6447 144.225 77.7094 144.196 77.7755 144.167C77.9021 144.108 78.0666 144.057 78.1603 144C78.6333 143.788 79.0806 143.662 79.5233 143.679C80.4393 143.713 81.3075 144.312 82.2717 145.805C91.6528 144.588 100.14 148.115 109.461 145.747C109.875 145.641 111.205 141.999 112.173 142.046C113.627 142.123 114.429 143.821 115.472 143.927C118.952 144.315 122.185 143.43 125.476 143.127C126.314 143.05 127.145 143.009 127.986 143.031C129.577 143.063 129.075 144.846 130.993 144.864C132.919 144.87 134.018 142.485 136.659 143.387C138.668 144.073 141.041 148.602 143.587 148.957C143.446 146.455 143.878 145.282 144.793 144.51C145.592 143.841 146.729 143.472 148.147 142.794C148.731 142.511 147.967 140.936 148.237 140.719C149.343 139.798 150.513 141.063 151.552 140.072C151.804 139.833 151.699 138.241 151.897 137.956C153.591 135.475 156.934 138.824 157.503 139.407C159.714 141.621 160.489 139.479 162.121 140.291C163.736 141.103 161.517 142.447 163.371 142.872C167.213 143.749 172.036 143.098 175.866 142.82C177.386 142.699 176.153 140.673 176.365 140.607C179.436 139.782 182.907 141.691 184.114 137.261C186.87 145.562 186.505 140.076 188.237 137.997L188.354 137.981C188.916 137.451 189.651 137.198 190.664 137.595C191.03 137.744 191.904 142.879 190.597 143.748C190.109 144.072 189.497 144.072 188.829 144.014L189.364 143.943C188.079 143.997 186.728 143.825 185.594 144.721C185.192 145.06 183.069 150.2 182.738 150.528C180.112 153.122 178.979 145.431 178.793 145.023C176.706 140.612 174.044 146.108 173.245 146.54C169.59 148.521 166.281 147.69 163.209 149.117C161.197 150.04 161.382 155.119 159.746 155.088C154.295 154.985 151.901 148.055 147.266 154.553C146.536 155.574 147.151 158.803 145.833 158.809C145.381 158.81 144.721 158.395 143.651 157.328C143.404 157.068 140.306 153.328 138.798 155.999C138.61 156.336 138.758 157.947 138.481 158.107C136.606 159.151 135.094 157.978 132.897 158.715C130.737 159.436 128.181 160.408 125.786 159.979C125.732 159.969 125.678 159.958 125.624 159.947C124.193 159.645 122.326 156.658 121.641 155.929C119.705 153.829 117.69 157.332 116.488 154.767C115.284 152.187 117.57 148.245 114.459 146.591C114.366 150.795 114.121 155.11 113.953 159.337C107.063 159.217 100.322 157.817 93.3798 157.86C92.518 157.868 93.3473 160.147 92.4269 160.214C88.456 160.477 85.2151 158.785 80.7781 159.175C79.9395 159.249 79.0138 159.43 77.911 159.63C77.3017 159.721 76.7436 159.838 75.7039 159.858C75.5089 159.872 75.0502 159.842 74.6045 159.797C74.3707 159.772 74.1118 159.738 73.8077 159.687C73.3936 159.607 72.7468 159.467 71.8395 159.16C71.3759 159.002 70.826 158.796 70.1107 158.458C70.0212 158.415 69.929 158.37 69.834 158.323C69.7271 158.269 69.6937 158.256 69.385 158.088C68.8816 157.812 68.3023 157.467 67.6202 156.977C66.2955 155.983 64.3357 154.482 62.4942 151.062C60.5692 147.839 59.9604 141.612 61.4425 137.851C62.4923 134.732 64.1073 132.688 65.3898 131.357C68.0354 128.747 69.6325 128.17 70.7558 127.607C70.8968 127.543 71.0306 127.485 71.1582 127.431C71.222 127.404 71.2843 127.379 71.3451 127.354C71.3992 127.332 71.4079 127.327 71.4388 127.315C71.5456 127.27 71.648 127.228 71.7463 127.189C71.9429 127.11 72.1236 127.042 72.2918 126.98C72.6281 126.856 72.9153 126.76 73.1718 126.677C73.6833 126.512 74.076 126.401 74.4187 126.306C76.2807 125.165 77.8447 124.123 79.4561 123.53C82.2704 127.92 86.6484 125.523 90.0811 125.372C91.2846 125.318 91.4223 126.597 92.3353 126.864C95.7762 127.834 93.5393 123.911 94.2935 123.099C97.4989 119.632 99.4985 129.048 103.855 128.013C104.081 127.964 105.993 122.398 106.324 122.011C108.412 119.505 107.063 123.689 108.678 123.774C109.997 123.841 111.154 124.045 112.329 124.059C113.755 124.082 115.177 123.815 116.859 122.641C117.743 122.017 119.452 118.428 121.813 120.483C122.123 120.752 122.313 122.442 122.532 122.5C126.477 123.409 125.531 118.166 127.25 115.986C128.965 113.807 132.882 116.775 133.742 117.684C135.982 120.032 132.664 119.094 132.625 119.375C132.168 122.731 134.393 121.725 136.232 121.634C137.512 126.704 139.948 125.897 138.133 121.519C137.93 121.042 136.637 121.796 136.232 121.634C136.795 116.297 139.41 115.105 143.382 119.194C145.242 121.112 144.405 123.946 148.54 122.146C150.414 121.332 148.951 117.957 150.497 116.65C152.785 114.71 156.064 114.996 159.171 115.074C160.837 115.114 162.456 115.095 163.852 114.642C165.298 114.172 163.48 112.514 164.47 112.124C167.067 111.086 169.723 112.097 172.129 110.852C172.344 110.737 171.387 108.826 172.164 108.645C175.284 107.894 178.013 107.58 181.124 107.115C183.762 106.727 186.572 106.258 189.541 105.445C192.632 104.6 197.891 101.914 201.235 101.201C203.255 100.768 205.528 100.591 207.958 100.453C208.277 100.427 208.435 100.444 208.894 100.385C208.929 100.38 208.967 100.374 209.015 100.365C209.058 100.356 208.997 100.373 209.184 100.329C209.265 100.31 209.357 100.288 209.577 100.241C209.692 100.217 209.834 100.187 210.115 100.137C210.46 100.092 210.641 99.9946 212.24 99.9164C212.677 99.9067 213.228 99.8888 214.242 99.99C215.27 100.163 216.702 100.103 219.94 101.808C221.551 102.732 223.796 104.324 225.582 107.477C227.4 110.598 227.802 114.777 227.141 117.629C225.686 123.32 223.518 124.541 222.576 125.598C220.49 127.375 219.939 127.458 219.395 127.785C219.148 127.911 218.954 128 218.89 128.03C218.796 128.073 218.716 128.109 218.643 128.141C218.08 128.384 217.895 128.444 217.723 128.507C217.412 128.617 217.315 128.644 217.219 128.674C217.055 128.723 216.947 128.752 216.94 128.75C216.825 128.77 216.719 128.786 216.639 128.795C216.515 128.801 216.33 128.825 216.223 128.825C215.682 128.862 215.191 128.885 214.666 128.923C213.653 128.989 212.621 129.081 211.672 129.196C209.718 129.443 207.952 129.827 206.495 130.534C203.593 131.94 204.888 133.695 204.013 135.448C202.358 138.834 196.415 135.666 195.576 135.153C195.543 135.137 198.012 133.805 196.278 133.266C194.76 131.448 195.605 135.134 195.576 135.153C195.013 134.822 189.677 136.136 188.763 136.876C188.277 137.271 189.227 139.009 188.962 139.18C187.253 140.267 185.552 141.265 183.79 142.196C179.366 144.581 173.939 146.941 167.079 148.198C166.91 148.204 166.555 146.036 166.17 146.076C160.8 146.534 157.753 149.795 152.903 151.804C148.06 153.776 143.827 153.026 141.436 149.052C139.605 149.14 137.435 148.535 135.493 147.681C134.011 146.947 132.616 146.059 131.582 145.381C129.437 143.969 128.299 148.071 128.073 148.115C120.938 149.404 116.906 146.219 109.087 142.59C108.412 142.265 107.609 141.9 106.736 141.501C103.087 139.86 98.2805 137.704 95.2764 136.232C92.3706 134.821 91.3348 132.898 88.4466 131.48C88.0532 131.281 87.2342 133.043 87.0846 133.019C82.7421 132.446 87.0802 129.974 87.0308 128.869C86.8652 124.696 86.9352 122.909 82.4425 119.613C81.5431 119.01 73.2728 119.007 71.2585 114.542C69.6773 110.875 70.7115 110.106 70.9012 108.252C71.0909 107.907 71.1335 107.472 70.8253 106.125C70.7768 105.667 69.1796 106.277 69.2632 102.485C69.3035 95.2765 73.7792 87.2472 77.2703 83.8995C80.2439 80.9857 83.4105 78.021 86.5695 74.8517C87.2631 74.1684 84.7322 73.3507 85.7347 72.3178C90.4259 67.5597 97.0955 61.9796 106.458 59.2527C108.746 58.6363 107.959 60.714 108.602 60.9829C109.933 61.5626 111.071 61.3392 112.106 60.7916C112.75 60.1386 113.346 58.0042 113.598 57.8705C124.576 52.1265 135.591 55.0553 146.335 53.1882C146.934 53.0653 151.755 48.5472 153.661 52.5627C153.819 52.8292 155.61 56.9169 157.515 54.2699C157.636 54.1051 156.507 51.9703 158.653 52.3005C159.811 52.4778 161.286 52.2412 162.915 52.3538C164.376 52.4543 165.901 52.8379 167.217 54.042C168.113 54.8438 169.883 59.0357 173.016 56.1878C173.188 55.975 178.491 49.3599 179.358 54.5294C179.495 55.3813 178.478 60.5467 182.152 58.374C182.861 57.9547 181.899 56.6109 183.676 56.1494C186.417 55.4401 189.524 57.4188 193.078 55.7217C193.377 55.5768 194.224 54.7974 195.18 54.3668C196.15 53.8862 197.235 53.8094 197.864 55.381C198.053 55.8541 197.179 57.4723 198.064 57.8549C202.268 59.6842 207.229 59.5345 211.676 61.8731C213.25 62.7022 211.708 65.25 213.253 66.4305C214.803 67.6079 218.116 69.2877 220.447 68.6723C222.822 68.0742 221.964 63.0004 225.268 63.7401C225.759 63.8554 226.271 63.9878 226.775 64.128C231.822 65.3378 236.622 67.333 241.84 69.798C244.474 71.0543 247.141 72.3617 250.538 74.193C252.304 75.1794 254.083 76.0733 257.198 78.3017C258.773 79.5685 260.757 80.6808 263.989 85.2211C265.543 87.5626 267.531 91.2462 267.907 96.6154C268.333 101.868 266.369 107.187 264.559 109.961C264.133 110.649 263.734 111.224 263.37 111.719C261.642 113.989 261.174 114.426 260.848 114.987C260.529 115.5 260.493 115.791 260.331 116.19C260.058 116.914 259.164 118.302 256.309 120.076C250.557 123.532 244.619 125.372 237.944 125.919C237.697 126.005 230.442 127.35 225.629 127.437C220.489 127.614 216.011 127.079 212.817 125.821C205.931 123 214.584 120.986 209.416 119.798C206.975 119.221 204.124 124.387 203.502 124.526C199.622 125.469 196.613 124.653 193.553 124.072C191.737 123.75 189.969 123.466 188.059 123.502C186.915 123.522 187.781 125.772 186.802 125.763C183.461 125.746 180.314 124.331 177.41 124.073C176.107 123.962 176.101 125.612 174.944 125.308C172.186 124.601 169.903 123.548 167.56 121.651C167.345 121.478 169.229 119.705 167.285 119.339C164.161 118.758 160.514 116.732 157.107 117.982C156.622 118.164 156.289 119.126 155.885 119.765C155.394 120.445 154.805 120.751 153.738 119.335C153.312 118.766 154.223 114.33 151.318 118.016C150.801 118.62 146.184 123.586 144.185 120.156C143.658 119.249 142.308 115.535 141.015 116.082C140.842 116.171 141.479 118.19 140.432 118.362C136.748 118.938 132.91 118.732 129.179 119.462C128.189 119.661 129.727 121.691 128.255 121.925C126.61 122.191 124.787 122.306 122.941 122.335C121.057 122.338 117.371 122.331 114.469 122.112C112.623 121.974 113.797 120.186 113.652 120.007C111.363 117.088 110.249 121.226 109.49 121.488C104.859 123.039 101.182 121.041 96.6235 121.186C95.3462 121.212 96.0699 123.239 95.8017 123.391C92.9612 124.83 95.2935 121.53 93.6692 120.966C89.1342 119.355 83.8681 118.522 78.9066 117.274C77.076 116.808 78.4423 119.613 76.7746 119.146C71.9454 117.788 66.9891 115.7 62.3838 112.811C59.1184 110.706 55.9851 108.392 53.0685 105.822C52.0037 104.876 53.6784 103.86 53.6415 103.367C53.4316 99.9475 48.8938 101.556 48.0788 101.453C44.4907 101.077 44.2954 99.0812 41.6789 97.5819C36.5237 94.0332 31.1526 92.5991 23.0278 79.4442C19.5443 72.7118 15.5054 64.8303 12.3207 57.481C11.5671 55.7628 10.8653 54.0751 10.2084 52.4277C10.1453 51.4701 7.90528 47.5627 5.54223 43.0574C4.33171 40.6681 2.92662 38.0065 1.56487 33.7789C0.41482 29.8269 -1.72475 22.2736 2.54331 13.0016C3.97373 9.94615 7.14505 5.25148 12.7591 2.41644C18.364 -0.449089 23.9475 -0.235258 27.2111 0.393692C30.113 0.977819 33.1824 1.57306 36.4614 2.23638C37.5044 2.45163 36.9795 -0.0571079 37.896 0.104048C46.3662 1.67375 54.1437 4.6841 61.2797 7.29887C63.7319 8.19713 66.3121 8.99979 68.9719 9.61945C69.7103 9.79454 69.3242 7.36931 70.5201 7.57388C72.98 7.97865 75.9751 8.94849 78.2596 10.2683C79.3784 10.9086 77.281 12.3195 78.4306 12.9288C81.102 14.3473 84.1825 15.2318 87.2381 15.5209C88.5382 15.6376 87.0953 13.0294 88.7427 13.3493C93.4593 14.2362 98.1888 14.9437 102.911 15.7405C109.516 16.8278 117.319 18.4493 124.494 21.3701C125.362 21.7175 125.371 26.3625 127.397 25.8183C127.756 24.5899 128.003 23.1147 128.293 21.7858C135.418 22.7306 142.337 24.093 149.206 25.6331C160.387 28.1474 171.353 31.1 182.504 33.5893C183.262 33.7582 182.446 31.107 183.917 31.4221C192.424 33.2432 200.823 34.3384 209.004 38.5547C209.809 38.9682 208.487 43.0521 211.155 42.9629C211.623 42.9424 215.566 43.2056 216.754 42.5129C216.917 42.4049 216.641 40.3069 217.881 40.5138C225.11 41.7574 232.502 43.8202 239.386 46.5594C240.507 47.0077 238.821 48.814 239.611 49.1501C239.936 49.2878 240.26 49.4158 240.582 49.5353C245.959 51.5006 252.159 51.4918 257.02 54.4169C260.485 56.5081 258.315 59.7875 259.508 63.752C259.677 64.3102 261.996 64.9163 261.657 66.9975C260.762 72.2139 258.369 77.6002 257.562 83.1938C257.424 84.398 260.363 83.7718 258.093 86.2337C258.008 86.4094 255.737 86.8857 254.972 87.7358C254.448 88.323 254.646 90.5574 253.705 91.2486C252.758 91.9382 252.307 90.003 250.799 90.7294C249.306 91.4728 249.32 93.9645 246.714 93.6878ZM121.783 138.727C120.08 136.167 117.678 143.259 120.725 142.22C120.875 142.161 121.874 138.854 121.783 138.727ZM100.412 152.145C97.6922 148.816 95.7169 153.63 97.641 156.208C99.5673 158.781 101.244 153.154 100.412 152.145ZM129.064 149.565C125.738 147.059 125.409 157.67 128.962 155.431C129.17 155.303 129.264 149.709 129.064 149.565ZM250.103 62.7374C250.128 62.8444 251.739 63.2954 251.815 63.2114C253.208 61.085 249.923 60.1708 250.103 62.7374ZM157.186 144.903C156.074 143.549 153.334 145.413 154.704 147.1C155.814 148.456 158.56 146.589 157.186 144.903ZM142.075 72.593C142.105 72.702 143.349 72.7691 143.305 72.1413C143.176 70.1123 141.45 70.7368 142.075 72.593ZM204.801 140.29C204.029 140.3 203.327 140.205 202.671 140.051L202.757 140.043C196.782 138.958 193.618 132.296 200.358 132.488C201.74 132.516 197.731 135.584 199.549 136.182C200.578 136.515 201.439 136.204 202.228 135.685L202.305 135.677C204.259 134.552 205.876 132.562 207.4 134.182C207.645 134.369 207.752 135.921 206.905 137.438C206.122 138.942 204.986 140.303 204.789 140.303C204.793 140.299 204.797 140.295 204.801 140.29ZM122.842 129.718C122.829 129.617 121.238 129.064 121.176 129.142C119.587 131.154 122.902 132.307 122.842 129.718ZM211.108 86.5954C211.15 86.8105 214.696 88.0701 214.855 87.9368C217.994 84.8252 210.549 82.1642 211.108 86.5954ZM194.908 125.296C193.778 128.092 191.695 128.958 189.483 126.448C191.304 126.121 193.094 125.651 194.908 125.296Z" fill="var(--stroke-0, #DCE2DD)"/>
</svg>
