<svg preserveAspectRatio="none" width="100%" height="100%" overflow="visible" style="display: block;" viewBox="0 0 409.414 64.7297" fill="none" xmlns="http://www.w3.org/2000/svg">
<g id="Group 5">
<path id="Vector 115" d="M1.00003 1.00003C2.54931 1.08532 6.95353 1.75572 25.1669 9.8061C41.9369 17.2185 73.7364 31.9532 95.3336 41.177C116.931 50.4009 127.297 53.8124 138.19 56.6545C149.082 59.4965 160.185 61.6658 174.84 62.8967C189.496 64.1276 207.366 64.3545 232.3 61.0414C257.235 57.7282 288.691 50.8681 309.29 45.8553C349.387 36.0972 354.522 33.114 361.096 31.1482C366.229 29.6132 383.376 27.7354 395.277 25.7586C396.616 25.0551 397.887 24.2698 399.684 23.224C401.481 22.1782 403.764 20.8956 408.414 18.6672" stroke="var(--stroke-0, #214371)" stroke-width="2" stroke-linecap="round"/>
</g>
</svg>
