<svg preserveAspectRatio="none" width="100%" height="100%" overflow="visible" style="display: block;" viewBox="0 0 231.757 71.9566" fill="none" xmlns="http://www.w3.org/2000/svg">
<g id="Group 4">
<path id="Vector 116" d="M207.427 1.00014C207.971 4.59721 212.21 20.7244 216.201 36.5775C217.272 40.8303 218.568 45.9414 220.374 51.2397C221.851 55.5728 228.779 50.8166 230.755 49.24C230.857 44.0851 227.886 37.3911 225.426 30.182C224.518 27.3146 224.302 26.0529 224.08 24.7531" stroke="var(--stroke-0, #214371)" stroke-width="2" stroke-linecap="round"/>
<path id="Vector 117" d="M225.081 25.6655V25.5143" stroke="var(--stroke-0, #214371)" stroke-width="2" stroke-linecap="round"/>
<path id="Vector 118" d="M209.085 2.66327C210.608 2.54579 215.243 1.81648 218.363 1.63686C220.55 3.0761 221.422 8.6846 221.804 15.9138C222.186 18.6967 222.951 19.6815 224.65 23.6367" stroke="var(--stroke-0, #214371)" stroke-width="2" stroke-linecap="round"/>
<path id="Vector 119" d="M14.9875 25.5661C14.8298 27.6597 12.2342 35.7127 5.90841 53.4429C4.07589 58.5792 1.68174 63.2992 1.13 66.194C0.578259 69.0888 1.81252 69.9674 4.15654 70.4201C6.50055 70.8727 9.91691 70.8727 12.3873 70.9354C14.8577 70.9982 16.2787 71.1237 17.0694 67.9619C21.6571 49.6176 20.8077 40.1517 23.9443 32.0821C24.6243 30.3327 25.4207 29.2846 25.1204 28.4673C24.4065 26.5249 20.9058 26.6646 19.6746 26.8082C18.1712 26.9837 24.4408 27.3167 27.3117 28.2396C33.2363 30.1441 31.1723 43.7027 35.2256 51.479C36.0638 53.0871 37.5793 54.2958 37.6809 55.329C37.7825 56.3622 36.7123 56.9979 35.5117 56.9238C34.3111 56.8498 33.0125 56.0468 32.0941 54.9275C29.4274 49.2178 27.3582 43.4287 25.9559 39.5126C25.1297 37.8832 24.0709 36.9804 22.9214 33.9486" stroke="var(--stroke-0, #214371)" stroke-width="2" stroke-linecap="round"/>
</g>
</svg>
