<svg preserveAspectRatio="none" width="100%" height="100%" overflow="visible" style="display: block;" viewBox="0 0 17.9999 17.9999" fill="none" xmlns="http://www.w3.org/2000/svg">
<path id="Vector (Stroke)" d="M15.9999 11.4999C15.9999 10.9091 15.8832 10.3241 15.6572 9.77824C15.431 9.23228 15.0994 8.73615 14.6816 8.31828C14.2637 7.90042 13.7676 7.56884 13.2216 7.3427C12.6757 7.11662 12.0908 6.99992 11.4999 6.99992H3.41399L6.70696 10.2929C7.09748 10.6834 7.09748 11.3164 6.70696 11.707C6.31643 12.0975 5.68342 12.0975 5.29289 11.707L0.292893 6.70696C-0.0976311 6.31643 -0.0976311 5.68342 0.292893 5.29289L5.29289 0.292893C5.68342 -0.0976311 6.31643 -0.0976311 6.70696 0.292893C7.09748 0.683417 7.09748 1.31643 6.70696 1.70696L3.41399 4.99992H11.4999C12.3535 4.99992 13.1986 5.16839 13.9872 5.49504C14.7758 5.8217 15.493 6.29966 16.0966 6.90324C16.7002 7.50683 17.1782 8.224 17.5048 9.01262C17.8315 9.80124 17.9999 10.6463 17.9999 11.4999C17.9999 12.3535 17.8315 13.1986 17.5048 13.9872C17.1782 14.7758 16.7002 15.493 16.0966 16.0966C15.493 16.7002 14.7758 17.1782 13.9872 17.5048C13.1986 17.8315 12.3535 17.9999 11.4999 17.9999H7.99992C7.44764 17.9999 6.99992 17.5522 6.99992 16.9999C6.99992 16.4476 7.44764 15.9999 7.99992 15.9999H11.4999C12.0908 15.9999 12.6757 15.8832 13.2216 15.6572C13.7676 15.431 14.2637 15.0994 14.6816 14.6816C15.0994 14.2637 15.431 13.7676 15.6572 13.2216C15.8832 12.6757 15.9999 12.0908 15.9999 11.4999Z" fill="var(--fill-0, #214371)"/>
</svg>
