<svg preserveAspectRatio="none" width="100%" height="100%" overflow="visible" style="display: block;" viewBox="0 0 35.8333 35.8329" fill="none" xmlns="http://www.w3.org/2000/svg">
<path id="Vector (Stroke)" d="M0 30.4579V23.2912C0 22.3017 0.802156 21.4996 1.79167 21.4996C2.78118 21.4996 3.58333 22.3017 3.58333 23.2912V30.4579C3.58333 30.9331 3.77223 31.3887 4.10824 31.7247C4.44424 32.0607 4.89982 32.2496 5.375 32.2496H30.4583C30.9335 32.2496 31.3891 32.0607 31.7251 31.7247C32.0611 31.3887 32.25 30.9331 32.25 30.4579V23.2912C32.25 22.3017 33.0522 21.4996 34.0417 21.4996C35.0312 21.4996 35.8333 22.3017 35.8333 23.2912V30.4579C35.8333 31.8835 35.2666 33.2502 34.2586 34.2582C33.2506 35.2662 31.8839 35.8329 30.4583 35.8329H5.375C3.94946 35.8329 2.58271 35.2662 1.57471 34.2582C0.566699 33.2502 0 31.8835 0 30.4579ZM16.125 23.2912V6.11644L10.2251 12.0163C9.52541 12.716 8.39126 12.716 7.69157 12.0163C6.99188 11.3167 6.99188 10.1825 7.69157 9.48282L16.6499 0.524482L16.7864 0.402005C17.4901 -0.171956 18.5275 -0.131475 19.1834 0.524482L28.1418 9.48282C28.8415 10.1825 28.8415 11.3167 28.1418 12.0163C27.4421 12.716 26.3079 12.716 25.6082 12.0163L19.7083 6.11644V23.2912C19.7083 24.2808 18.9062 25.0829 17.9167 25.0829C16.9272 25.0829 16.125 24.2808 16.125 23.2912Z" fill="var(--fill-0, #214371)"/>
</svg>
